<mxfile host="app.diagrams.net" modified="2024-04-21T20:34:37.146Z" agent="Mozilla/5.0 (Windows NT 10.0; Win64; x64) AppleWebKit/537.36 (KHTML, like Gecko) Chrome/124.0.0.0 Safari/537.36 Edg/124.0.0.0" etag="O3qaCPa3hTpQjZBTih-v" version="24.2.7" type="google">
  <diagram name="Page-1" id="td47tIoWJRVJoF8D6y3X">
    <mxGraphModel grid="1" page="1" gridSize="10" guides="1" tooltips="1" connect="1" arrows="1" fold="1" pageScale="1" pageWidth="827" pageHeight="1169" math="0" shadow="0">
      <root>
        <mxCell id="0" />
        <mxCell id="1" parent="0" />
        <mxCell id="DngDsceMsDr6woa6UJfg-1" value="MainWindow" style="rounded=0;whiteSpace=wrap;html=1;" vertex="1" parent="1">
          <mxGeometry x="160" y="120" width="120" height="60" as="geometry" />
        </mxCell>
        <mxCell id="DngDsceMsDr6woa6UJfg-3" value="UI" style="rounded=0;whiteSpace=wrap;html=1;" vertex="1" parent="1">
          <mxGeometry x="920" y="120" width="120" height="60" as="geometry" />
        </mxCell>
        <mxCell id="DngDsceMsDr6woa6UJfg-4" value="Controller" style="rounded=0;whiteSpace=wrap;html=1;" vertex="1" parent="1">
          <mxGeometry x="420" y="120" width="120" height="60" as="geometry" />
        </mxCell>
        <mxCell id="DngDsceMsDr6woa6UJfg-5" value="" style="endArrow=none;dashed=1;html=1;dashPattern=1 3;strokeWidth=2;rounded=0;" edge="1" parent="1" source="CPTXS04qu5CJsJDC1SKM-25">
          <mxGeometry width="50" height="50" relative="1" as="geometry">
            <mxPoint x="220" y="1000" as="sourcePoint" />
            <mxPoint x="219.5" y="180" as="targetPoint" />
          </mxGeometry>
        </mxCell>
        <mxCell id="DngDsceMsDr6woa6UJfg-6" value="" style="endArrow=none;dashed=1;html=1;dashPattern=1 3;strokeWidth=2;rounded=0;" edge="1" parent="1">
          <mxGeometry width="50" height="50" relative="1" as="geometry">
            <mxPoint x="479.5" y="260" as="sourcePoint" />
            <mxPoint x="479.5" y="180" as="targetPoint" />
          </mxGeometry>
        </mxCell>
        <mxCell id="DngDsceMsDr6woa6UJfg-7" value="" style="endArrow=none;dashed=1;html=1;dashPattern=1 3;strokeWidth=2;rounded=0;" edge="1" parent="1" source="CPTXS04qu5CJsJDC1SKM-35">
          <mxGeometry width="50" height="50" relative="1" as="geometry">
            <mxPoint x="980" y="650" as="sourcePoint" />
            <mxPoint x="979.5" y="180" as="targetPoint" />
          </mxGeometry>
        </mxCell>
        <mxCell id="DngDsceMsDr6woa6UJfg-8" value="&amp;lt;&amp;lt;actor&amp;gt;&amp;gt;&lt;div&gt;Paitent&lt;/div&gt;" style="rounded=0;whiteSpace=wrap;html=1;" vertex="1" parent="1">
          <mxGeometry x="-110" y="120" width="120" height="60" as="geometry" />
        </mxCell>
        <mxCell id="DngDsceMsDr6woa6UJfg-9" value="" style="endArrow=none;dashed=1;html=1;dashPattern=1 3;strokeWidth=2;rounded=0;" edge="1" parent="1" source="CPTXS04qu5CJsJDC1SKM-24">
          <mxGeometry width="50" height="50" relative="1" as="geometry">
            <mxPoint x="-50" y="980" as="sourcePoint" />
            <mxPoint x="-50.5" y="180" as="targetPoint" />
          </mxGeometry>
        </mxCell>
        <mxCell id="DngDsceMsDr6woa6UJfg-10" value="" style="endArrow=classic;html=1;rounded=0;endFill=1;" edge="1" parent="1">
          <mxGeometry width="50" height="50" relative="1" as="geometry">
            <mxPoint x="-50" y="240" as="sourcePoint" />
            <mxPoint x="210" y="240" as="targetPoint" />
          </mxGeometry>
        </mxCell>
        <mxCell id="DngDsceMsDr6woa6UJfg-12" value="MainWindow::on_powerButton_clicked()" style="text;html=1;align=center;verticalAlign=middle;whiteSpace=wrap;rounded=0;" vertex="1" parent="1">
          <mxGeometry x="-17.5" y="211" width="195" height="30" as="geometry" />
        </mxCell>
        <mxCell id="DngDsceMsDr6woa6UJfg-20" value="Electrode" style="rounded=0;whiteSpace=wrap;html=1;" vertex="1" parent="1">
          <mxGeometry x="670" y="120" width="120" height="60" as="geometry" />
        </mxCell>
        <mxCell id="DngDsceMsDr6woa6UJfg-21" value="" style="endArrow=none;dashed=1;html=1;dashPattern=1 3;strokeWidth=2;rounded=0;" edge="1" parent="1" source="CPTXS04qu5CJsJDC1SKM-40">
          <mxGeometry width="50" height="50" relative="1" as="geometry">
            <mxPoint x="730" y="1390" as="sourcePoint" />
            <mxPoint x="729.5" y="180" as="targetPoint" />
          </mxGeometry>
        </mxCell>
        <mxCell id="DngDsceMsDr6woa6UJfg-47" value="Sequence Diagram: Normal Operation of the Neureset Device" style="text;html=1;align=center;verticalAlign=middle;whiteSpace=wrap;rounded=0;" vertex="1" parent="1">
          <mxGeometry x="240" y="40" width="400" height="30" as="geometry" />
        </mxCell>
        <mxCell id="DngDsceMsDr6woa6UJfg-49" value="" style="endArrow=none;dashed=1;html=1;dashPattern=1 3;strokeWidth=2;rounded=0;" edge="1" parent="1" source="CPTXS04qu5CJsJDC1SKM-29">
          <mxGeometry width="50" height="50" relative="1" as="geometry">
            <mxPoint x="480" y="260" as="sourcePoint" />
            <mxPoint x="480" y="630" as="targetPoint" />
          </mxGeometry>
        </mxCell>
        <mxCell id="DngDsceMsDr6woa6UJfg-53" value="" style="endArrow=none;dashed=1;html=1;dashPattern=1 3;strokeWidth=2;rounded=0;" edge="1" parent="1" source="CPTXS04qu5CJsJDC1SKM-39">
          <mxGeometry width="50" height="50" relative="1" as="geometry">
            <mxPoint x="480" y="1000" as="sourcePoint" />
            <mxPoint x="480" y="620" as="targetPoint" />
          </mxGeometry>
        </mxCell>
        <mxCell id="DngDsceMsDr6woa6UJfg-55" value="" style="endArrow=none;dashed=1;html=1;dashPattern=1 3;strokeWidth=2;rounded=0;" edge="1" parent="1">
          <mxGeometry width="50" height="50" relative="1" as="geometry">
            <mxPoint x="980" y="650" as="sourcePoint" />
            <mxPoint x="980" y="650" as="targetPoint" />
          </mxGeometry>
        </mxCell>
        <mxCell id="CPTXS04qu5CJsJDC1SKM-23" value="" style="endArrow=none;dashed=1;html=1;dashPattern=1 3;strokeWidth=2;rounded=0;" edge="1" parent="1" target="CPTXS04qu5CJsJDC1SKM-24">
          <mxGeometry width="50" height="50" relative="1" as="geometry">
            <mxPoint x="-50" y="1540" as="sourcePoint" />
            <mxPoint x="-50.5" y="180" as="targetPoint" />
          </mxGeometry>
        </mxCell>
        <mxCell id="CPTXS04qu5CJsJDC1SKM-24" value="" style="html=1;points=[[0,0,0,0,5],[0,1,0,0,-5],[1,0,0,0,5],[1,1,0,0,-5]];perimeter=orthogonalPerimeter;outlineConnect=0;targetShapes=umlLifeline;portConstraint=eastwest;newEdgeStyle={&quot;curved&quot;:0,&quot;rounded&quot;:0};" vertex="1" parent="1">
          <mxGeometry x="-55" y="230" width="10" height="740" as="geometry" />
        </mxCell>
        <mxCell id="CPTXS04qu5CJsJDC1SKM-26" value="" style="endArrow=none;dashed=1;html=1;dashPattern=1 3;strokeWidth=2;rounded=0;" edge="1" parent="1" source="CPTXS04qu5CJsJDC1SKM-27" target="CPTXS04qu5CJsJDC1SKM-25">
          <mxGeometry width="50" height="50" relative="1" as="geometry">
            <mxPoint x="220" y="1000" as="sourcePoint" />
            <mxPoint x="219.5" y="180" as="targetPoint" />
          </mxGeometry>
        </mxCell>
        <mxCell id="CPTXS04qu5CJsJDC1SKM-25" value="" style="html=1;points=[[0,0,0,0,5],[0,1,0,0,-5],[1,0,0,0,5],[1,1,0,0,-5]];perimeter=orthogonalPerimeter;outlineConnect=0;targetShapes=umlLifeline;portConstraint=eastwest;newEdgeStyle={&quot;curved&quot;:0,&quot;rounded&quot;:0};" vertex="1" parent="1">
          <mxGeometry x="215" y="230" width="10" height="410" as="geometry" />
        </mxCell>
        <mxCell id="CPTXS04qu5CJsJDC1SKM-28" value="" style="endArrow=none;dashed=1;html=1;dashPattern=1 3;strokeWidth=2;rounded=0;" edge="1" parent="1" target="CPTXS04qu5CJsJDC1SKM-27">
          <mxGeometry width="50" height="50" relative="1" as="geometry">
            <mxPoint x="220" y="1540" as="sourcePoint" />
            <mxPoint x="220" y="560" as="targetPoint" />
          </mxGeometry>
        </mxCell>
        <mxCell id="CPTXS04qu5CJsJDC1SKM-27" value="" style="html=1;points=[[0,0,0,0,5],[0,1,0,0,-5],[1,0,0,0,5],[1,1,0,0,-5]];perimeter=orthogonalPerimeter;outlineConnect=0;targetShapes=umlLifeline;portConstraint=eastwest;newEdgeStyle={&quot;curved&quot;:0,&quot;rounded&quot;:0};" vertex="1" parent="1">
          <mxGeometry x="215" y="620" width="10" height="920" as="geometry" />
        </mxCell>
        <mxCell id="CPTXS04qu5CJsJDC1SKM-30" value="" style="endArrow=none;dashed=1;html=1;dashPattern=1 3;strokeWidth=2;rounded=0;" edge="1" parent="1" target="CPTXS04qu5CJsJDC1SKM-29">
          <mxGeometry width="50" height="50" relative="1" as="geometry">
            <mxPoint x="480" y="260" as="sourcePoint" />
            <mxPoint x="480" y="630" as="targetPoint" />
          </mxGeometry>
        </mxCell>
        <mxCell id="CPTXS04qu5CJsJDC1SKM-29" value="" style="html=1;points=[[0,0,0,0,5],[0,1,0,0,-5],[1,0,0,0,5],[1,1,0,0,-5]];perimeter=orthogonalPerimeter;outlineConnect=0;targetShapes=umlLifeline;portConstraint=eastwest;newEdgeStyle={&quot;curved&quot;:0,&quot;rounded&quot;:0};" vertex="1" parent="1">
          <mxGeometry x="475" y="250" width="10" height="180" as="geometry" />
        </mxCell>
        <mxCell id="CPTXS04qu5CJsJDC1SKM-36" value="" style="endArrow=none;dashed=1;html=1;dashPattern=1 3;strokeWidth=2;rounded=0;" edge="1" parent="1" target="CPTXS04qu5CJsJDC1SKM-35">
          <mxGeometry width="50" height="50" relative="1" as="geometry">
            <mxPoint x="980" y="720" as="sourcePoint" />
            <mxPoint x="979.5" y="180" as="targetPoint" />
          </mxGeometry>
        </mxCell>
        <mxCell id="CPTXS04qu5CJsJDC1SKM-35" value="" style="html=1;points=[[0,0,0,0,5],[0,1,0,0,-5],[1,0,0,0,5],[1,1,0,0,-5]];perimeter=orthogonalPerimeter;outlineConnect=0;targetShapes=umlLifeline;portConstraint=eastwest;newEdgeStyle={&quot;curved&quot;:0,&quot;rounded&quot;:0};" vertex="1" parent="1">
          <mxGeometry x="975" y="460" width="10" height="70" as="geometry" />
        </mxCell>
        <mxCell id="CPTXS04qu5CJsJDC1SKM-38" value="" style="endArrow=none;dashed=1;html=1;dashPattern=1 3;strokeWidth=2;rounded=0;" edge="1" parent="1" target="CPTXS04qu5CJsJDC1SKM-39">
          <mxGeometry width="50" height="50" relative="1" as="geometry">
            <mxPoint x="480" y="1580" as="sourcePoint" />
            <mxPoint x="480" y="620" as="targetPoint" />
          </mxGeometry>
        </mxCell>
        <mxCell id="CPTXS04qu5CJsJDC1SKM-39" value="" style="html=1;points=[[0,0,0,0,5],[0,1,0,0,-5],[1,0,0,0,5],[1,1,0,0,-5]];perimeter=orthogonalPerimeter;outlineConnect=0;targetShapes=umlLifeline;portConstraint=eastwest;newEdgeStyle={&quot;curved&quot;:0,&quot;rounded&quot;:0};" vertex="1" parent="1">
          <mxGeometry x="475" y="650" width="10" height="900" as="geometry" />
        </mxCell>
        <mxCell id="CPTXS04qu5CJsJDC1SKM-41" value="" style="endArrow=none;dashed=1;html=1;dashPattern=1 3;strokeWidth=2;rounded=0;" edge="1" parent="1" source="xbrr9_rG2uLwrDL6vmJX-57" target="CPTXS04qu5CJsJDC1SKM-42">
          <mxGeometry width="50" height="50" relative="1" as="geometry">
            <mxPoint x="980" y="1260" as="sourcePoint" />
            <mxPoint x="980" y="650" as="targetPoint" />
          </mxGeometry>
        </mxCell>
        <mxCell id="CPTXS04qu5CJsJDC1SKM-44" value="" style="endArrow=none;dashed=1;html=1;dashPattern=1 3;strokeWidth=2;rounded=0;" edge="1" parent="1">
          <mxGeometry width="50" height="50" relative="1" as="geometry">
            <mxPoint x="980" y="650" as="sourcePoint" />
            <mxPoint x="980" y="650" as="targetPoint" />
          </mxGeometry>
        </mxCell>
        <mxCell id="xbrr9_rG2uLwrDL6vmJX-1" value="" style="endArrow=classic;html=1;rounded=0;endFill=1;" edge="1" parent="1" source="CPTXS04qu5CJsJDC1SKM-25">
          <mxGeometry width="50" height="50" relative="1" as="geometry">
            <mxPoint x="-47" y="270" as="sourcePoint" />
            <mxPoint x="970" y="280" as="targetPoint" />
          </mxGeometry>
        </mxCell>
        <mxCell id="xbrr9_rG2uLwrDL6vmJX-2" value="ui-&gt;ContactLostIndicator-&gt;setStyleSheet(RED)" style="text;whiteSpace=wrap;" vertex="1" parent="1">
          <mxGeometry x="230" y="241" width="300" height="40" as="geometry" />
        </mxCell>
        <mxCell id="xbrr9_rG2uLwrDL6vmJX-4" value="&amp;lt;&amp;lt;Patient turns on the Neureset device&amp;gt;&amp;gt;" style="text;html=1;align=center;verticalAlign=middle;whiteSpace=wrap;rounded=0;" vertex="1" parent="1">
          <mxGeometry x="25" y="170" width="110" height="30" as="geometry" />
        </mxCell>
        <mxCell id="xbrr9_rG2uLwrDL6vmJX-5" value="" style="endArrow=classic;html=1;rounded=0;endFill=1;" edge="1" parent="1">
          <mxGeometry width="50" height="50" relative="1" as="geometry">
            <mxPoint x="-41" y="380" as="sourcePoint" />
            <mxPoint x="216" y="380" as="targetPoint" />
          </mxGeometry>
        </mxCell>
        <mxCell id="xbrr9_rG2uLwrDL6vmJX-6" value="MainWindow::on_electrodeReconnect_clicked()" style="text;html=1;align=center;verticalAlign=middle;whiteSpace=wrap;rounded=0;" vertex="1" parent="1">
          <mxGeometry x="-10" y="350" width="195" height="30" as="geometry" />
        </mxCell>
        <mxCell id="xbrr9_rG2uLwrDL6vmJX-8" value="model-&gt;setStringList(menuOptions)" style="text;whiteSpace=wrap;" vertex="1" parent="1">
          <mxGeometry x="250" y="281" width="300" height="40" as="geometry" />
        </mxCell>
        <mxCell id="xbrr9_rG2uLwrDL6vmJX-9" value="" style="endArrow=classic;html=1;rounded=0;endFill=1;" edge="1" parent="1" source="xbrr9_rG2uLwrDL6vmJX-47">
          <mxGeometry width="50" height="50" relative="1" as="geometry">
            <mxPoint x="225" y="304.29" as="sourcePoint" />
            <mxPoint x="983.6923452524038" y="304.29" as="targetPoint" />
          </mxGeometry>
        </mxCell>
        <mxCell id="xbrr9_rG2uLwrDL6vmJX-11" value="togglePower()" style="html=1;align=left;spacingLeft=2;endArrow=block;rounded=0;edgeStyle=orthogonalEdgeStyle;curved=0;rounded=0;" edge="1" parent="1">
          <mxGeometry x="0.0588" relative="1" as="geometry">
            <mxPoint x="223" y="325" as="sourcePoint" />
            <Array as="points">
              <mxPoint x="253" y="355" />
            </Array>
            <mxPoint x="228" y="355" as="targetPoint" />
            <mxPoint y="1" as="offset" />
          </mxGeometry>
        </mxCell>
        <mxCell id="xbrr9_rG2uLwrDL6vmJX-13" value="" style="endArrow=classic;html=1;rounded=0;endFill=1;" edge="1" parent="1">
          <mxGeometry width="50" height="50" relative="1" as="geometry">
            <mxPoint x="223" y="410" as="sourcePoint" />
            <mxPoint x="470" y="410" as="targetPoint" />
          </mxGeometry>
        </mxCell>
        <mxCell id="xbrr9_rG2uLwrDL6vmJX-14" value="Controller::setElectrodeContactSecured()" style="text;html=1;align=center;verticalAlign=middle;whiteSpace=wrap;rounded=0;" vertex="1" parent="1">
          <mxGeometry x="240" y="380" width="195" height="30" as="geometry" />
        </mxCell>
        <mxCell id="xbrr9_rG2uLwrDL6vmJX-15" value="" style="endArrow=classic;html=1;rounded=0;endFill=1;" edge="1" parent="1">
          <mxGeometry width="50" height="50" relative="1" as="geometry">
            <mxPoint x="225" y="480" as="sourcePoint" />
            <mxPoint x="970" y="480" as="targetPoint" />
          </mxGeometry>
        </mxCell>
        <mxCell id="xbrr9_rG2uLwrDL6vmJX-16" value="ui-ContactSecureIndicator-&amp;gt;setStyleSheet(&quot;background-color:blue;&quot;)" style="text;html=1;align=center;verticalAlign=middle;resizable=0;points=[];autosize=1;strokeColor=none;fillColor=none;" vertex="1" parent="1">
          <mxGeometry x="225" y="450" width="390" height="30" as="geometry" />
        </mxCell>
        <mxCell id="xbrr9_rG2uLwrDL6vmJX-20" value="ui-ContactLostIndicator-&amp;gt;setStyleSheet(&quot;background-color:grey;&quot;)" style="text;html=1;align=center;verticalAlign=middle;resizable=0;points=[];autosize=1;strokeColor=none;fillColor=none;" vertex="1" parent="1">
          <mxGeometry x="229" y="490" width="370" height="30" as="geometry" />
        </mxCell>
        <mxCell id="xbrr9_rG2uLwrDL6vmJX-21" value="" style="endArrow=classic;html=1;rounded=0;endFill=1;" edge="1" parent="1">
          <mxGeometry width="50" height="50" relative="1" as="geometry">
            <mxPoint x="225" y="520" as="sourcePoint" />
            <mxPoint x="970" y="520" as="targetPoint" />
          </mxGeometry>
        </mxCell>
        <mxCell id="xbrr9_rG2uLwrDL6vmJX-22" value="" style="endArrow=classic;html=1;rounded=0;endFill=1;" edge="1" parent="1">
          <mxGeometry width="50" height="50" relative="1" as="geometry">
            <mxPoint x="-45" y="583" as="sourcePoint" />
            <mxPoint x="210" y="583" as="targetPoint" />
          </mxGeometry>
        </mxCell>
        <mxCell id="xbrr9_rG2uLwrDL6vmJX-23" value="&amp;lt;&amp;lt;Patient&amp;nbsp; selects &#39;New Session&#39;&amp;gt;&amp;gt;" style="text;html=1;align=center;verticalAlign=middle;resizable=0;points=[];autosize=1;strokeColor=none;fillColor=none;" vertex="1" parent="1">
          <mxGeometry x="-25" y="555" width="210" height="30" as="geometry" />
        </mxCell>
        <mxCell id="xbrr9_rG2uLwrDL6vmJX-24" value="&amp;lt;&amp;lt;Device confirms&amp;nbsp;&lt;div&gt;electrode connections&amp;gt;&amp;gt;&lt;/div&gt;" style="html=1;align=left;spacingLeft=2;endArrow=block;rounded=0;edgeStyle=orthogonalEdgeStyle;curved=0;rounded=0;" edge="1" parent="1">
          <mxGeometry x="0.0588" relative="1" as="geometry">
            <mxPoint x="225" y="620" as="sourcePoint" />
            <Array as="points">
              <mxPoint x="255" y="650" />
            </Array>
            <mxPoint x="230" y="650" as="targetPoint" />
            <mxPoint y="1" as="offset" />
          </mxGeometry>
        </mxCell>
        <mxCell id="xbrr9_rG2uLwrDL6vmJX-27" value="Controller::startNewSession()" style="text;html=1;align=center;verticalAlign=middle;whiteSpace=wrap;rounded=0;" vertex="1" parent="1">
          <mxGeometry x="219" y="670" width="195" height="30" as="geometry" />
        </mxCell>
        <mxCell id="xbrr9_rG2uLwrDL6vmJX-28" value="" style="endArrow=classic;html=1;rounded=0;endFill=1;" edge="1" parent="1">
          <mxGeometry width="50" height="50" relative="1" as="geometry">
            <mxPoint x="225" y="700" as="sourcePoint" />
            <mxPoint x="475" y="700" as="targetPoint" />
          </mxGeometry>
        </mxCell>
        <mxCell id="xbrr9_rG2uLwrDL6vmJX-29" value="&amp;lt;&amp;lt;Remaining time gets set&amp;gt;&amp;gt;" style="html=1;align=left;spacingLeft=2;endArrow=block;rounded=0;edgeStyle=orthogonalEdgeStyle;curved=0;rounded=0;" edge="1" parent="1">
          <mxGeometry x="0.0588" relative="1" as="geometry">
            <mxPoint x="485" y="710" as="sourcePoint" />
            <Array as="points">
              <mxPoint x="515" y="740" />
            </Array>
            <mxPoint x="490" y="740" as="targetPoint" />
            <mxPoint y="1" as="offset" />
          </mxGeometry>
        </mxCell>
        <mxCell id="xbrr9_rG2uLwrDL6vmJX-31" value="" style="endArrow=classic;html=1;rounded=0;endFill=1;" edge="1" parent="1" source="CPTXS04qu5CJsJDC1SKM-42">
          <mxGeometry width="50" height="50" relative="1" as="geometry">
            <mxPoint x="225" y="777" as="sourcePoint" />
            <mxPoint x="981" y="780" as="targetPoint" />
          </mxGeometry>
        </mxCell>
        <mxCell id="xbrr9_rG2uLwrDL6vmJX-32" value="ui-&amp;gt;progressBar-&amp;gt;setValue(0)" style="text;html=1;align=center;verticalAlign=middle;resizable=0;points=[];autosize=1;strokeColor=none;fillColor=none;" vertex="1" parent="1">
          <mxGeometry x="270" y="747" width="180" height="30" as="geometry" />
        </mxCell>
        <mxCell id="xbrr9_rG2uLwrDL6vmJX-33" value="" style="endArrow=classic;html=1;rounded=0;endFill=1;" edge="1" parent="1" target="CPTXS04qu5CJsJDC1SKM-40">
          <mxGeometry width="50" height="50" relative="1" as="geometry">
            <mxPoint x="485" y="820" as="sourcePoint" />
            <mxPoint x="1241" y="823" as="targetPoint" />
          </mxGeometry>
        </mxCell>
        <mxCell id="xbrr9_rG2uLwrDL6vmJX-34" value="Electrode::startSession()" style="text;html=1;align=center;verticalAlign=middle;resizable=0;points=[];autosize=1;strokeColor=none;fillColor=none;" vertex="1" parent="1">
          <mxGeometry x="525" y="790" width="150" height="30" as="geometry" />
        </mxCell>
        <mxCell id="xbrr9_rG2uLwrDL6vmJX-36" value="Electrode::getInitialBaselineFrequency()" style="html=1;align=left;spacingLeft=2;endArrow=block;rounded=0;edgeStyle=orthogonalEdgeStyle;curved=0;rounded=0;" edge="1" parent="1">
          <mxGeometry x="0.0588" relative="1" as="geometry">
            <mxPoint x="727" y="860" as="sourcePoint" />
            <Array as="points">
              <mxPoint x="757" y="890" />
            </Array>
            <mxPoint x="732" y="890" as="targetPoint" />
            <mxPoint y="1" as="offset" />
          </mxGeometry>
        </mxCell>
        <mxCell id="xbrr9_rG2uLwrDL6vmJX-38" value="" style="endArrow=classic;html=1;rounded=0;endFill=1;" edge="1" parent="1">
          <mxGeometry width="50" height="50" relative="1" as="geometry">
            <mxPoint x="717" y="920" as="sourcePoint" />
            <mxPoint x="480" y="920" as="targetPoint" />
          </mxGeometry>
        </mxCell>
        <mxCell id="xbrr9_rG2uLwrDL6vmJX-39" value="source.getSourceData()" style="text;html=1;align=center;verticalAlign=middle;resizable=0;points=[];autosize=1;strokeColor=none;fillColor=none;" vertex="1" parent="1">
          <mxGeometry x="525" y="890" width="150" height="30" as="geometry" />
        </mxCell>
        <mxCell id="xbrr9_rG2uLwrDL6vmJX-40" value="" style="endArrow=classic;html=1;rounded=0;endFill=1;" edge="1" parent="1">
          <mxGeometry width="50" height="50" relative="1" as="geometry">
            <mxPoint x="480" y="960" as="sourcePoint" />
            <mxPoint x="225" y="960" as="targetPoint" />
          </mxGeometry>
        </mxCell>
        <mxCell id="xbrr9_rG2uLwrDL6vmJX-41" value="MainWindow::slotTreatmentApplicationStarted()" style="text;html=1;align=center;verticalAlign=middle;resizable=0;points=[];autosize=1;strokeColor=none;fillColor=none;" vertex="1" parent="1">
          <mxGeometry x="245" y="930" width="280" height="30" as="geometry" />
        </mxCell>
        <mxCell id="xbrr9_rG2uLwrDL6vmJX-42" value="" style="endArrow=classic;html=1;rounded=0;endFill=1;" edge="1" parent="1">
          <mxGeometry width="50" height="50" relative="1" as="geometry">
            <mxPoint x="480" y="990" as="sourcePoint" />
            <mxPoint x="980" y="990" as="targetPoint" />
          </mxGeometry>
        </mxCell>
        <mxCell id="xbrr9_rG2uLwrDL6vmJX-43" value="ui-&amp;gt;TreatmentIndicator-&amp;gt;setStyleSheet(&quot;background-color : green&quot;)" style="text;html=1;align=center;verticalAlign=middle;resizable=0;points=[];autosize=1;strokeColor=none;fillColor=none;" vertex="1" parent="1">
          <mxGeometry x="490" y="960" width="380" height="30" as="geometry" />
        </mxCell>
        <mxCell id="xbrr9_rG2uLwrDL6vmJX-44" value="offset += 5;, cycled through the electrodes" style="html=1;align=left;spacingLeft=2;endArrow=block;rounded=0;edgeStyle=orthogonalEdgeStyle;curved=0;rounded=0;" edge="1" parent="1">
          <mxGeometry x="0.0588" relative="1" as="geometry">
            <mxPoint x="475" y="1060" as="sourcePoint" />
            <Array as="points">
              <mxPoint x="505" y="1090" />
            </Array>
            <mxPoint x="480" y="1090" as="targetPoint" />
            <mxPoint y="1" as="offset" />
          </mxGeometry>
        </mxCell>
        <mxCell id="xbrr9_rG2uLwrDL6vmJX-46" value="Controller::startIndividualElectrodeTreatment()" style="html=1;align=left;spacingLeft=2;endArrow=block;rounded=0;edgeStyle=orthogonalEdgeStyle;curved=0;rounded=0;" edge="1" parent="1">
          <mxGeometry x="0.0588" relative="1" as="geometry">
            <mxPoint x="475" y="1110" as="sourcePoint" />
            <Array as="points">
              <mxPoint x="505" y="1140" />
            </Array>
            <mxPoint x="480" y="1140" as="targetPoint" />
            <mxPoint y="1" as="offset" />
          </mxGeometry>
        </mxCell>
        <mxCell id="xbrr9_rG2uLwrDL6vmJX-48" value="" style="endArrow=classic;html=1;rounded=0;endFill=1;" edge="1" parent="1" source="CPTXS04qu5CJsJDC1SKM-25" target="xbrr9_rG2uLwrDL6vmJX-47">
          <mxGeometry width="50" height="50" relative="1" as="geometry">
            <mxPoint x="225" y="304.29" as="sourcePoint" />
            <mxPoint x="983.6923452524038" y="304.29" as="targetPoint" />
          </mxGeometry>
        </mxCell>
        <mxCell id="xbrr9_rG2uLwrDL6vmJX-47" value="" style="html=1;points=[[0,0,0,0,5],[0,1,0,0,-5],[1,0,0,0,5],[1,1,0,0,-5]];perimeter=orthogonalPerimeter;outlineConnect=0;targetShapes=umlLifeline;portConstraint=eastwest;newEdgeStyle={&quot;curved&quot;:0,&quot;rounded&quot;:0};" vertex="1" parent="1">
          <mxGeometry x="975" y="263" width="10" height="58" as="geometry" />
        </mxCell>
        <mxCell id="xbrr9_rG2uLwrDL6vmJX-49" value="" style="endArrow=none;dashed=1;html=1;dashPattern=1 3;strokeWidth=2;rounded=0;" edge="1" parent="1" source="CPTXS04qu5CJsJDC1SKM-42">
          <mxGeometry width="50" height="50" relative="1" as="geometry">
            <mxPoint x="980" y="830" as="sourcePoint" />
            <mxPoint x="980" y="720" as="targetPoint" />
          </mxGeometry>
        </mxCell>
        <mxCell id="xbrr9_rG2uLwrDL6vmJX-50" value="" style="endArrow=classic;html=1;rounded=0;endFill=1;" edge="1" parent="1" target="CPTXS04qu5CJsJDC1SKM-42">
          <mxGeometry width="50" height="50" relative="1" as="geometry">
            <mxPoint x="225" y="777" as="sourcePoint" />
            <mxPoint x="981" y="780" as="targetPoint" />
          </mxGeometry>
        </mxCell>
        <mxCell id="CPTXS04qu5CJsJDC1SKM-42" value="" style="html=1;points=[[0,0,0,0,5],[0,1,0,0,-5],[1,0,0,0,5],[1,1,0,0,-5]];perimeter=orthogonalPerimeter;outlineConnect=0;targetShapes=umlLifeline;portConstraint=eastwest;newEdgeStyle={&quot;curved&quot;:0,&quot;rounded&quot;:0};" vertex="1" parent="1">
          <mxGeometry x="975" y="750" width="10" height="50" as="geometry" />
        </mxCell>
        <mxCell id="xbrr9_rG2uLwrDL6vmJX-52" value="" style="endArrow=classic;html=1;rounded=0;endFill=1;" edge="1" parent="1">
          <mxGeometry width="50" height="50" relative="1" as="geometry">
            <mxPoint x="480" y="1190" as="sourcePoint" />
            <mxPoint x="225" y="1190" as="targetPoint" />
          </mxGeometry>
        </mxCell>
        <mxCell id="xbrr9_rG2uLwrDL6vmJX-53" value="MainWindow::slotTreatmentApplicationFinished()" style="text;html=1;align=center;verticalAlign=middle;resizable=0;points=[];autosize=1;strokeColor=none;fillColor=none;" vertex="1" parent="1">
          <mxGeometry x="220" y="1160" width="280" height="30" as="geometry" />
        </mxCell>
        <mxCell id="xbrr9_rG2uLwrDL6vmJX-55" value="" style="endArrow=classic;html=1;rounded=0;endFill=1;" edge="1" parent="1">
          <mxGeometry width="50" height="50" relative="1" as="geometry">
            <mxPoint x="480" y="1240" as="sourcePoint" />
            <mxPoint x="980" y="1240" as="targetPoint" />
          </mxGeometry>
        </mxCell>
        <mxCell id="xbrr9_rG2uLwrDL6vmJX-56" value="ui-&amp;gt;TreatmentIndicator-&amp;gt;setStyleSheet(&quot;background-color : grey&quot;)" style="text;html=1;align=center;verticalAlign=middle;resizable=0;points=[];autosize=1;strokeColor=none;fillColor=none;" vertex="1" parent="1">
          <mxGeometry x="505" y="1210" width="370" height="30" as="geometry" />
        </mxCell>
        <mxCell id="xbrr9_rG2uLwrDL6vmJX-58" value="" style="endArrow=none;dashed=1;html=1;dashPattern=1 3;strokeWidth=2;rounded=0;" edge="1" parent="1" target="xbrr9_rG2uLwrDL6vmJX-57">
          <mxGeometry width="50" height="50" relative="1" as="geometry">
            <mxPoint x="980" y="1570" as="sourcePoint" />
            <mxPoint x="980" y="800" as="targetPoint" />
          </mxGeometry>
        </mxCell>
        <mxCell id="xbrr9_rG2uLwrDL6vmJX-57" value="" style="html=1;points=[[0,0,0,0,5],[0,1,0,0,-5],[1,0,0,0,5],[1,1,0,0,-5]];perimeter=orthogonalPerimeter;outlineConnect=0;targetShapes=umlLifeline;portConstraint=eastwest;newEdgeStyle={&quot;curved&quot;:0,&quot;rounded&quot;:0};" vertex="1" parent="1">
          <mxGeometry x="975" y="970" width="10" height="50" as="geometry" />
        </mxCell>
        <mxCell id="xbrr9_rG2uLwrDL6vmJX-60" value="" style="endArrow=none;dashed=1;html=1;dashPattern=1 3;strokeWidth=2;rounded=0;" edge="1" parent="1" target="xbrr9_rG2uLwrDL6vmJX-59">
          <mxGeometry width="50" height="50" relative="1" as="geometry">
            <mxPoint x="980" y="1260" as="sourcePoint" />
            <mxPoint x="980" y="1020" as="targetPoint" />
          </mxGeometry>
        </mxCell>
        <mxCell id="xbrr9_rG2uLwrDL6vmJX-59" value="" style="html=1;points=[[0,0,0,0,5],[0,1,0,0,-5],[1,0,0,0,5],[1,1,0,0,-5]];perimeter=orthogonalPerimeter;outlineConnect=0;targetShapes=umlLifeline;portConstraint=eastwest;newEdgeStyle={&quot;curved&quot;:0,&quot;rounded&quot;:0};" vertex="1" parent="1">
          <mxGeometry x="975" y="1220" width="10" height="50" as="geometry" />
        </mxCell>
        <mxCell id="xbrr9_rG2uLwrDL6vmJX-61" value="Controller::setElectrodeFinishedFinalBaselinet()" style="html=1;align=left;spacingLeft=2;endArrow=block;rounded=0;edgeStyle=orthogonalEdgeStyle;curved=0;rounded=0;" edge="1" parent="1">
          <mxGeometry x="0.0588" relative="1" as="geometry">
            <mxPoint x="485" y="1340" as="sourcePoint" />
            <Array as="points">
              <mxPoint x="515" y="1370" />
            </Array>
            <mxPoint x="490" y="1370" as="targetPoint" />
            <mxPoint y="1" as="offset" />
          </mxGeometry>
        </mxCell>
        <mxCell id="xbrr9_rG2uLwrDL6vmJX-62" value="" style="edgeStyle=none;orthogonalLoop=1;jettySize=auto;html=1;rounded=0;" edge="1" parent="1">
          <mxGeometry width="100" relative="1" as="geometry">
            <mxPoint x="480" y="1420" as="sourcePoint" />
            <mxPoint x="230" y="1420" as="targetPoint" />
            <Array as="points" />
          </mxGeometry>
        </mxCell>
        <mxCell id="xbrr9_rG2uLwrDL6vmJX-63" value="MainWindow::slotTreatmentSessionComplete()" style="text;html=1;align=center;verticalAlign=middle;resizable=0;points=[];autosize=1;strokeColor=none;fillColor=none;" vertex="1" parent="1">
          <mxGeometry x="215" y="1380" width="270" height="30" as="geometry" />
        </mxCell>
        <mxCell id="xbrr9_rG2uLwrDL6vmJX-64" value="fileManager.addSessionLog(session)" style="html=1;align=left;spacingLeft=2;endArrow=block;rounded=0;edgeStyle=orthogonalEdgeStyle;curved=0;rounded=0;" edge="1" parent="1">
          <mxGeometry x="0.0588" relative="1" as="geometry">
            <mxPoint x="485" y="1460" as="sourcePoint" />
            <Array as="points">
              <mxPoint x="515" y="1490" />
            </Array>
            <mxPoint x="490" y="1490" as="targetPoint" />
            <mxPoint y="1" as="offset" />
          </mxGeometry>
        </mxCell>
        <mxCell id="xbrr9_rG2uLwrDL6vmJX-65" value="" style="edgeStyle=none;orthogonalLoop=1;jettySize=auto;html=1;rounded=0;" edge="1" parent="1">
          <mxGeometry width="100" relative="1" as="geometry">
            <mxPoint x="485" y="1540" as="sourcePoint" />
            <mxPoint x="225" y="1540" as="targetPoint" />
            <Array as="points" />
          </mxGeometry>
        </mxCell>
        <mxCell id="xbrr9_rG2uLwrDL6vmJX-66" value="MainWindow: &amp;lt;&amp;lt;Display Success Message&amp;gt;&amp;gt;" style="text;html=1;align=center;verticalAlign=middle;resizable=0;points=[];autosize=1;strokeColor=none;fillColor=none;" vertex="1" parent="1">
          <mxGeometry x="225" y="1510" width="270" height="30" as="geometry" />
        </mxCell>
        <mxCell id="xbrr9_rG2uLwrDL6vmJX-67" value="" style="endArrow=none;dashed=1;html=1;dashPattern=1 3;strokeWidth=2;rounded=0;" edge="1" parent="1" source="xbrr9_rG2uLwrDL6vmJX-68" target="CPTXS04qu5CJsJDC1SKM-40">
          <mxGeometry width="50" height="50" relative="1" as="geometry">
            <mxPoint x="730" y="1390" as="sourcePoint" />
            <mxPoint x="729.5" y="180" as="targetPoint" />
          </mxGeometry>
        </mxCell>
        <mxCell id="CPTXS04qu5CJsJDC1SKM-40" value="" style="html=1;points=[[0,0,0,0,5],[0,1,0,0,-5],[1,0,0,0,5],[1,1,0,0,-5]];perimeter=orthogonalPerimeter;outlineConnect=0;targetShapes=umlLifeline;portConstraint=eastwest;newEdgeStyle={&quot;curved&quot;:0,&quot;rounded&quot;:0};" vertex="1" parent="1">
          <mxGeometry x="725" y="777" width="10" height="63" as="geometry" />
        </mxCell>
        <mxCell id="xbrr9_rG2uLwrDL6vmJX-69" value="" style="endArrow=none;dashed=1;html=1;dashPattern=1 3;strokeWidth=2;rounded=0;" edge="1" parent="1" target="xbrr9_rG2uLwrDL6vmJX-68">
          <mxGeometry width="50" height="50" relative="1" as="geometry">
            <mxPoint x="730" y="1560" as="sourcePoint" />
            <mxPoint x="730" y="840" as="targetPoint" />
          </mxGeometry>
        </mxCell>
        <mxCell id="xbrr9_rG2uLwrDL6vmJX-68" value="" style="html=1;points=[[0,0,0,0,5],[0,1,0,0,-5],[1,0,0,0,5],[1,1,0,0,-5]];perimeter=orthogonalPerimeter;outlineConnect=0;targetShapes=umlLifeline;portConstraint=eastwest;newEdgeStyle={&quot;curved&quot;:0,&quot;rounded&quot;:0};" vertex="1" parent="1">
          <mxGeometry x="725" y="840" width="10" height="63" as="geometry" />
        </mxCell>
        <mxCell id="haqGEHLaO7lolSfQP92f-1" value="sd: Normal Operation of the Neureset Device" style="shape=umlFrame;whiteSpace=wrap;html=1;pointerEvents=0;width=260;height=20;" vertex="1" parent="1">
          <mxGeometry x="-200" y="80" width="1340" height="1520" as="geometry" />
        </mxCell>
      </root>
    </mxGraphModel>
  </diagram>
</mxfile>
